<svg xmlns="http://www.w3.org/2000/svg" width="200" height="200" viewBox="0 0 200 200">
  <circle cx="100" cy="100" r="90" fill="#4169E1" stroke="#000080" stroke-width="5"/>
  <circle cx="100" cy="100" r="75" fill="#87CEFA"/>
  <path d="M100 40 C60 40 40 70 40 100 C40 140 70 160 100 160 C130 160 160 140 160 100 C160 70 140 40 100 40 Z" fill="#000080" stroke="#4169E1" stroke-width="3"/>
  <path d="M100 60 C75 60 60 80 60 100 C60 130 80 140 100 140 C120 140 140 130 140 100 C140 80 125 60 100 60 Z" fill="#87CEFA"/>
  <path d="M85 85 L85 115 L120 100 Z" fill="#000080"/>
  <text x="100" y="180" font-family="Arial" font-size="14" font-weight="bold" text-anchor="middle" fill="#000080">PROGRAM MASTER</text>
</svg>
